<?xml version="1.0" encoding="utf-8"?>
<!-- Generator: Adobe Illustrator 26.0.0, SVG Export Plug-In . SVG Version: 6.00 Build 0)  -->
<svg version="1.1" id="Layer_1" xmlns="http://www.w3.org/2000/svg" xmlns:xlink="http://www.w3.org/1999/xlink" x="0px" y="0px"
	 viewBox="0 0 719.5 455.4" style="enable-background:new 0 0 719.5 455.4;" xml:space="preserve">
<style type="text/css">
	.st0{fill:#F2F2F2;}
	.st1{fill:#3F3D56;}
	.st2{fill:#E6E6E6;}
	.st3{fill:#FFB6B6;}
	.st4{opacity:0.1;enable-background:new    ;}
	.st5{fill:#286120;}
	.st6{fill:#2F2E41;}
	.st7{fill:#FFFFFF;}
</style>
<path class="st0" d="M602.5,35.7H0.7c0.8-4.8,2.5-9.4,4.8-13.5C12.9,8.9,27,0,43.2,0h516.7c16.2,0,30.3,8.9,37.7,22.1
	C599.9,26.3,601.6,30.8,602.5,35.7z"/>
<path class="st1" d="M719.5,453.7c0,0.7-0.5,1.2-1.2,1.2H471c-0.7,0-1.2-0.5-1.2-1.2c0-0.3,0.1-0.6,0.3-0.8h89.7
	c1.9,0,3.8-0.1,5.6-0.4h152.8C719,452.5,719.5,453,719.5,453.7z"/>
<path class="st2" d="M442.2,211.1H160.9c-2.6,0-4.7-2.7-4.7-6s2.1-6,4.7-6h281.3c2.6,0,4.7,2.7,4.7,6S444.8,211.1,442.2,211.1z"/>
<path class="st1" d="M602.5,35.7c-0.9-4.8-2.5-9.4-4.8-13.5C590.2,8.9,576.1,0,559.9,0H43.2C27,0,12.9,8.9,5.5,22.1
	c-2.3,4.1-4,8.7-4.8,13.5c-0.4,2.5-0.7,5-0.7,7.6v368.4c0,23.8,19.4,43.2,43.2,43.2h516.7c4.9,0,9.7-0.8,14.1-2.4
	c16.9-5.9,29.1-22,29.1-40.9V43.2C603.1,40.7,602.9,38.1,602.5,35.7z M601.1,411.7c0,20.9-15.5,38.1-35.6,40.9
	c-1.8,0.2-3.7,0.4-5.6,0.4H104.6C48,452.9,2,406.9,2,350.2v-307c0-2.6,0.2-5.1,0.7-7.6c0.9-4.9,2.7-9.4,5.1-13.5
	C15,10.1,28.2,2,43.2,2h516.7c15.1,0,28.2,8.1,35.4,20.1c2.5,4.1,4.2,8.6,5.1,13.5c0.5,2.5,0.7,5,0.7,7.6V411.7z"/>
<g>
	<polygon class="st3" points="575.9,216.1 572.5,203.7 587.8,198 589.5,209.3 	"/>
	<polygon class="st4" points="575.9,216.1 572.5,203.7 581.5,199.9 578.7,214.5 	"/>
	<g>
		<path class="st3" d="M531.3,322.4c-2.9-1.7-3.1-6.8-0.3-11.4c1.2-2,2.7-3.6,4.3-4.6l1.6-2.6l20.2-36.2c0,0,8.8-34.2,12.4-38.3
			c3.6-4.1,8.8-3.2,8.8-3.2l4.6,4.1l-16.5,48.4l-20.3,28.6l-2.7,4c-0.1,1.9-0.7,4-1.9,6C538.8,321.8,534.3,324.1,531.3,322.4
			L531.3,322.4z"/>
		<path class="st5" d="M575.1,212.5c0,0,6.4-0.2,10.5,4.7s-17.2,61.2-17.2,61.2l-17.3-0.6L575.1,212.5L575.1,212.5z"/>
	</g>
	<circle class="st3" cx="576.8" cy="189.9" r="15.8"/>
	<polygon class="st3" points="539.8,419.1 529.1,445.6 522.9,439.4 520.7,427.6 529.7,416.3 	"/>
	<polygon class="st3" points="640.2,409.5 650.9,421.9 645.9,432.1 634.6,430.4 628.9,414.6 	"/>
	<polygon class="st3" points="568.9,261.5 567.5,284.3 602.4,278.1 600.2,264 	"/>
	<path class="st6" d="M567.2,284.6l35.2-11.6c0,0,13,25.9-1.1,42.3s-60.9,109.4-60.9,109.4l-14.1-6.8l20.3-59.2l22.6-54.7
		L567.2,284.6L567.2,284.6z"/>
	<polygon class="st6" points="601.3,305.8 614.8,365 643,410.7 628.4,419.1 588.9,365 575.9,323.2 	"/>
	<path class="st6" d="M515.6,425.3h-9.8c0,0-11.4-4.5-14.1,0s11.9,17.3,11.9,17.3s20.4,11.5,23.2,10.9s3.9-7.3,3.9-7.3l3.4-7.9
		l-5.1,1.7c0,0-6.8-3.9-5.1-10.7L515.6,425.3L515.6,425.3z"/>
	<path class="st6" d="M648.7,423.6V418l6.6,5.6c0,0,10.9,3.9,2.5,12.4c-8.5,8.5-19.2,17.5-19.2,17.5s-16.9,4.5-18-0.6s0-7.1,0-7.1
		l6.2-3l5.6-14.7l9,1.1L648.7,423.6L648.7,423.6z"/>
	<path class="st6" d="M581.6,193l-5.1-0.6l-9.3-9.3c0,0-8.5,4.5-8.5,1.1c0-15.8,9.6-15.2,17.5-16.4c7.9-1.1,7-1.4,9.6,2.8
		c1.2,1.9,5.4,3.1,5.4,3.1s7.9-10.7,11.8,2.3c3.9,13-1.1,53,2.8,56.4c3.9,3.4-16.2,6.8-14-6.5s6.1-33.6,3.9-38.1
		c-2.3-4.5-2.8-3.4-2.8-3.4c2.8-1.1,4.6,19-5.9,19.9l-0.3-9.8C586.6,194.6,584.9,189.6,581.6,193L581.6,193z"/>
	<path class="st5" d="M574.5,212.4l16.9-6.8l22.6,67.7l-46.4-1.7l-4.2-20.2c0,0-4.1-10.5-0.7-16.7S574.5,212.4,574.5,212.4
		L574.5,212.4z"/>
	<g>
		<path class="st3" d="M618.5,325.8c-3.4,0.3-6.5-3.8-6.9-9.1c-0.2-2.3,0.1-4.5,0.9-6.2l-0.2-3.1l-4.7-41.2c0,0-8.7-33.7-8.2-39.2
			c0.5-5.5,1.3-6.9,1.3-6.9l6.1,0.6l14.8,48.9l0.2,35.1l0.1,4.8c1,1.6,1.7,3.7,1.9,6C624.3,321,621.9,325.5,618.5,325.8L618.5,325.8
			z"/>
		<path class="st5" d="M590,211c0,0,5.1-3.9,11.3-2.3s21.7,59.8,21.7,59.8l-14.4,9.6L590,211z"/>
	</g>
</g>
<path class="st5" d="M296.2,308.6h-67.7c-4.1,0-7.5-3.4-7.5-7.5v-6.8c0-4.1,3.4-7.5,7.5-7.5h67.7c4.1,0,7.5,3.4,7.5,7.5v6.8
	C303.7,305.3,300.3,308.6,296.2,308.6z"/>
<path class="st5" d="M556.2,87.5h-67.7c-4.1,0-7.5-3.4-7.5-7.5v-6.8c0-4.1,3.4-7.5,7.5-7.5h67.7c4.1,0,7.5,3.4,7.5,7.5V80
	C563.7,84.2,560.3,87.5,556.2,87.5z"/>
<path class="st5" d="M396.6,309.1h-67.7c-4.4,0-8-3.6-8-8v-6.8c0-4.4,3.6-8,8-8h67.7c4.4,0,8,3.6,8,8v6.8
	C404.6,305.6,401,309.1,396.6,309.1z M328.9,288.4c-3.3,0-6,2.7-6,6v6.8c0,3.3,2.7,6,6,6h67.7c3.3,0,6-2.7,6-6v-6.8c0-3.3-2.7-6-6-6
	H328.9z"/>
<path class="st2" d="M479.6,180.1h-356c-3.3,0-6-2.7-6-6s2.7-6,6-6h356c3.3,0,6,2.7,6,6S482.9,180.1,479.6,180.1z"/>
<path class="st2" d="M100.9,82.6h-45c-3.3,0-6-2.7-6-6s2.7-6,6-6h45c3.3,0,6,2.7,6,6S104.2,82.6,100.9,82.6z"/>
<path class="st2" d="M369.9,82.6h-45c-3.3,0-6-2.7-6-6s2.7-6,6-6h45c3.3,0,6,2.7,6,6S373.2,82.6,369.9,82.6z"/>
<path class="st2" d="M454.9,82.6h-45c-3.3,0-6-2.7-6-6s2.7-6,6-6h45c3.3,0,6,2.7,6,6S458.2,82.6,454.9,82.6z"/>
<path class="st2" d="M400.6,242.1h-198c-3.3,0-6-2.7-6-6s2.7-6,6-6h198c3.3,0,6,2.7,6,6S403.9,242.1,400.6,242.1z"/>
<path class="st2" d="M409.2,373.4H193.9c-2,0-3.6-1.6-3.6-3.6s1.6-3.6,3.6-3.6h215.3c2,0,3.6,1.6,3.6,3.6S411.2,373.4,409.2,373.4
	L409.2,373.4z"/>
<path class="st7" d="M411.2,21.4H195.9c-2,0-3.6-1.6-3.6-3.6s1.6-3.6,3.6-3.6h215.3c2,0,3.6,1.6,3.6,3.6S413.2,21.4,411.2,21.4
	L411.2,21.4z"/>
</svg>
